<svg xmlns="http://www.w3.org/2000/svg" viewBox="0 0 200 200" enable-background="new 0 0 200 200"><g fill="#640000"><path d="M48 11v105.2c0 11.9 1.2 33.6 22.2 33.6 21.2 0 21.8-19.6 21.8-33.6v-105.2h41v105.2c0 29.6-5.6 42.7-16.2 54.2-10.8 11.7-25.7 19.1-46.5 19.1-12.2 0-34.1-3.1-47.8-18.8-13.9-16-16.5-28.4-16.5-54.5v-105.2h42zM103 11h38.6c20.8 0 30.5 1.4 39.4 12 5.5 6 7.3 13.5 7.3 21.1 0 10-4.3 20-14.3 26 19.8 7.4 20.3 24.7 20.3 30.1 0 10.4-3.8 22.4-11.3 28.9-11.3 10-19.5 11.9-40.3 11.9h-39.7v-130zm30 49h11.9c4.3 0 13.3-.4 13.3-10.8 0-9.8-8.5-10.2-13.3-10.2h-11.9v21zm0 52h15.6c4 0 15.6-.1 15.6-12.6 0-11.3-10.7-11.4-15.6-11.4h-15.6v24z"/></g></svg>